<svg id="Layer_1" data-name="Layer 1" xmlns="http://www.w3.org/2000/svg" viewBox="0 0 794.37 660.31"><defs><style>.cls-1,.cls-2{fill:none;stroke:#fff;stroke-width:6px;}.cls-1,.cls-2,.cls-3{stroke-linecap:round;stroke-linejoin:round;}.cls-2{stroke-dasharray:0 8.03;}.cls-3{fill:#faa41a;stroke:#faa41a;stroke-width:5.5px;}</style></defs><line class="cls-1" x1="3" y1="3" x2="3" y2="3"/><line class="cls-2" x1="11.03" y1="3" x2="175.6" y2="3"/><line class="cls-1" x1="179.61" y1="3" x2="179.61" y2="3"/><line class="cls-1" x1="3" y1="22.63" x2="3" y2="22.63"/><line class="cls-2" x1="11.03" y1="22.63" x2="175.6" y2="22.63"/><line class="cls-1" x1="179.61" y1="22.63" x2="179.61" y2="22.63"/><line class="cls-1" x1="3" y1="42.25" x2="3" y2="42.25"/><line class="cls-2" x1="11.03" y1="42.25" x2="175.6" y2="42.25"/><line class="cls-1" x1="179.61" y1="42.25" x2="179.61" y2="42.25"/><line class="cls-1" x1="3" y1="61.87" x2="3" y2="61.87"/><line class="cls-2" x1="11.03" y1="61.87" x2="175.6" y2="61.87"/><line class="cls-1" x1="179.61" y1="61.87" x2="179.61" y2="61.87"/><line class="cls-1" x1="3" y1="81.5" x2="3" y2="81.5"/><line class="cls-2" x1="11.03" y1="81.5" x2="175.6" y2="81.5"/><line class="cls-1" x1="179.61" y1="81.5" x2="179.61" y2="81.5"/><line class="cls-1" x1="3" y1="101.12" x2="3" y2="101.12"/><line class="cls-2" x1="11.03" y1="101.12" x2="175.6" y2="101.12"/><line class="cls-1" x1="179.61" y1="101.12" x2="179.61" y2="101.12"/><line class="cls-1" x1="3" y1="120.74" x2="3" y2="120.74"/><line class="cls-2" x1="11.03" y1="120.74" x2="175.6" y2="120.74"/><line class="cls-1" x1="179.61" y1="120.74" x2="179.61" y2="120.74"/><line class="cls-1" x1="3" y1="140.37" x2="3" y2="140.37"/><line class="cls-2" x1="11.03" y1="140.37" x2="175.6" y2="140.37"/><line class="cls-1" x1="179.61" y1="140.37" x2="179.61" y2="140.37"/><line class="cls-1" x1="3" y1="159.99" x2="3" y2="159.99"/><line class="cls-2" x1="11.03" y1="159.99" x2="175.6" y2="159.99"/><line class="cls-1" x1="179.61" y1="159.99" x2="179.61" y2="159.99"/><line class="cls-1" x1="3" y1="179.61" x2="3" y2="179.61"/><line class="cls-2" x1="11.03" y1="179.61" x2="175.6" y2="179.61"/><line class="cls-1" x1="179.61" y1="179.61" x2="179.61" y2="179.61"/><line class="cls-3" x1="689.31" y1="641.3" x2="704.45" y2="657.56"/><line class="cls-3" x1="704.45" y1="641.3" x2="689.31" y2="657.56"/><line class="cls-3" x1="732.89" y1="567.45" x2="748.03" y2="583.71"/><line class="cls-3" x1="748.03" y1="567.45" x2="732.89" y2="583.71"/><line class="cls-3" x1="732.89" y1="641.3" x2="748.03" y2="657.56"/><line class="cls-3" x1="748.03" y1="641.3" x2="732.89" y2="657.56"/><line class="cls-3" x1="776.48" y1="493.6" x2="791.62" y2="509.86"/><line class="cls-3" x1="791.62" y1="493.6" x2="776.48" y2="509.86"/><line class="cls-3" x1="776.48" y1="567.45" x2="791.62" y2="583.71"/><line class="cls-3" x1="791.62" y1="567.45" x2="776.48" y2="583.71"/><line class="cls-3" x1="776.48" y1="641.3" x2="791.62" y2="657.56"/><line class="cls-3" x1="791.62" y1="641.3" x2="776.48" y2="657.56"/></svg>